#!OML:ASF F:\VICON\USERDATA\INSTALL\rory3\rory3.ASF
:FULLY-SPECIFIED
:DEGREES
19
root -0.4844749058752501 18.37229007393141 -16.94369062605789 4.279486574647751 6.79008780750004 -3.0734750609521018
lfemur -39.821287247502156 -6.52977503416326 -17.462405842769794
ltibia 54.9098004487591
lfoot -0.17070497882816182 -5.47096589802035
ltoes -17.27779158690295
rfemur 11.074284955811578 2.892708366582492 33.78229283737117
rtibia 31.015409637542522
rfoot 17.597591983315336 -7.0694798299035915
rtoes -9.064132497668545
lowerback 11.898812747927781 1.5532901327779896 4.970349539850662
upperback -1.3770336610730096 2.947439387436857 1.8142371109090187
thorax -8.010720504072204 1.2533894253756865 -1.415350384301445
lowerneck -16.570814017342784 -6.113345249264812 -1.9988249808532137
upperneck 15.764383983952644 -8.097116527382076 1.2708680603746383
head 7.716879446064894 -3.8506043122010416 -0.18480876513200029
lclavicle -6.477656811165328e-16 -4.8606873629162415e-15
lhumerus -67.23548724056545 -7.878910382710799 98.21299571138717
lradius 103.38400904322617
lwrist 29.555099953349927
lhand -32.9394953968086 -0.24947649763892785
lfingers 7.125019999999998
lthumb -6.155845471812706 29.641101555827703
rclavicle -6.477656811165328e-16 -4.8606873629162415e-15
rhumerus -44.04030698297533 14.355293402295882 -97.42380419312757
rradius 124.49698605572587
rwrist -15.54649622002402
rhand -16.673109094933984 46.900780720203876
rfingers 7.125019999999998
rthumb 9.5507109964823 17.137280432985477
20
root -0.4514169894851202 18.53618747911476 -15.831490697582677 4.067707724224114 7.330526596014835 -2.7343363895304535
lfemur -37.366288836560074 -7.582652564061549 -18.03140513806764
ltibia 43.794104544468624
lfoot -0.7240517822552879 -6.990443901671297
ltoes -22.341887742617534
rfemur 13.473485540117906 3.643976907763422 33.59009311184525
rtibia 30.836509675018966
rfoot 24.185087098050804 -6.572690709328346
rtoes 0.9370340010612752
lowerback 11.83601310342205 1.616909508987936 5.277918691827725
upperback -1.7511096106987152 3.0586488126458597 1.4095902461852907
thorax -8.335727646184194 1.2680092659098188 -2.0414773550828507
lowerneck -16.388914779447294 -6.15459507814412 -1.9077867165440476
upperneck 16.668380248909358 -8.219775881699414 1.329027665103199
head 7.986755727564396 -3.8876439560776506 -0.20647745254274652
lclavicle -6.477657615146672e-16 -4.860687333305775e-15
lhumerus -69.30288646699685 -6.548523029077864 96.89720046358559
lradius 104.16200783211231
lwrist 30.977298578871633
lhand -34.64128942782764 0.9493244264846032
lfingers 7.125019999999998
lthumb -7.79859963670903 30.78549767631293
rclavicle -6.477657615146672e-16 -4.860687333305775e-15
rhumerus -45.75680486624924 14.971791856898603 -98.28600211321242
rradius 125.73398472950126
rwrist -17.347892117181107
rhand -14.087021448651365 60.120655690665934
rfingers 7.125019999999998
rthumb 12.045178565923745 30.48725316720826
21
root -0.45941688408666304 18.65379873871177 -14.285103229662766 3.926699937680194 7.11489184231789 -2.845295625573855
lfemur -34.96078611457455 -6.204966902242834 -18.000091212354036
ltibia 34.988694816015425
lfoot 5.432264030758043 -12.282555498600622
ltoes -11.999924628888397
rfemur 13.509818271214904 6.69498059735319 34.21741500533676
rtibia 32.48769006453994
rfoot 27.262032660122355 -5.656213671389083
rtoes 14.628607698062034
lowerback 11.733123929698749 1.7873536609575331 5.223927968180218
upperback -1.9184760770533749 3.314260035738613 1.2879996151291602
thorax -7.872278353228449 1.4147585164259884 -2.3605174409799643
lowerneck -16.551711755064336 -6.2683430149365345 -2.3244405090626037
upperneck 16.93974545961945 -8.117074000510678 1.9546827767363428
head 8.415077921147198 -3.6589068885825684 -0.13587844755522038
lclavicle -6.526856291843094e-16 -4.8641807020886914e-15
lhumerus -70.11438789312962 -6.1221572056175475 96.32800810690308
lradius 106.09095368402768
lwrist 28.71741351916139
lhand -33.04673763843117 1.450210970699787
lfingers 7.125019999999998
lthumb -7.04727587658396 31.00923115057054
rclavicle -6.444951721567503e-16 -4.859258976196018e-15
rhumerus -46.83343843835092 17.170938800125516 -99.90591477192643
rradius 127.29943562690356
rwrist -15.03662391138474
rhand -18.56416426049349 36.41080890390912
rfingers 7.125019999999998
rthumb 18.241547097890813 30.135890948724942
22
root -0.45377968639862254 18.70935877404955 -13.282024381063195 4.139987953206306 6.487355164764204 -2.8933939471509307
lfemur -33.14756253803722 -4.872174488197583 -18.106678169166198
ltibia 28.16398876914674
lfoot 11.428725871905629 -16.714995123566776
ltoes -5.94053401395607
rfemur 12.889000456885594 9.593178621094204 35.004168942586546
rtibia 36.6168277804452
rfoot 26.849491129525084 -4.628013305870253
rtoes 19.780068313456056
lowerback 11.157756437533934 2.007193824610966 5.090258246177397
upperback -1.8521172690101495 3.56290362062046 1.2232330298437097
thorax -7.0585708330921735 1.5392896193785326 -2.567567183921018
lowerneck -16.85150376033801 -6.189034508610112 -2.4891914398262176
upperneck 17.5112685247825 -8.005567700634998 2.312763853210363
head 8.756048583471275 -3.5707925700845173 0.06713235486112767
lclavicle -6.531693677072313e-16 -4.86449432870947e-15
lhumerus -70.41671194370805 -6.024663188318959 95.98409880766245
lradius 108.41793031153391
lwrist 24.57158996790315
lhand -31.3315000202507 0.26994050079372245
lfingers 7.125019999999998
lthumb -5.374942154549835 30.013540649801804
rclavicle -6.426683821953298e-16 -4.8582040004382675e-15
rhumerus -48.13847347240723 18.683704725911333 -101.22265334743109
rradius 128.6569312344003
rwrist -12.923762498317226
rhand -18.705490662680187 36.6708024265897
rfingers 7.125019999999998
rthumb 15.647861990588364 25.16991312090122
